<?xml version="1.0" encoding="utf-8"?>
<!-- Generator: Adobe Illustrator 19.2.0, SVG Export Plug-In . SVG Version: 6.00 Build 0)  -->
<svg version="1.1" id="Layer_1" xmlns="http://www.w3.org/2000/svg" xmlns:xlink="http://www.w3.org/1999/xlink" x="0px" y="0px"
	 viewBox="0 0 69.4 65.6" style="enable-background:new 0 0 69.4 65.6;" xml:space="preserve">
<style type="text/css">
	.st0{fill:#7F7F7F;}
	.st1{fill:#FFFFFF;}
</style>
<g>
	<g>
	</g>
	<g>
	</g>
	<g>
	</g>
	<g>
	</g>
	<g>
	</g>
	<g>
	</g>
	<g>
	</g>
	<g>
	</g>
	<g>
	</g>
	<g>
	</g>
	<g>
	</g>
	<g>
	</g>
	<g>
	</g>
	<g>
	</g>
	<g>
	</g>
</g>
<path class="st0" d="M34.7,5.3C19.4,5.3,7.2,17.8,7.2,32.8c0,15.2,12.3,27.5,27.5,27.5c15.1,0,27.5-12.1,27.5-27.4
	C62.2,17.6,49.9,5.3,34.7,5.3z"/>
<g>
	<path class="st1" d="M15.1,45c0-8.2,0-16.3,0-24.5c0.1,0,0.2,0,0.4,0c3.8,0,7.5,0,11.3,0c1.2,0,2.5,0.1,3.6,0.6
		c2,0.7,3.4,2.1,3.8,4.2c0.3,1.6,0.3,3.2-0.6,4.7c-0.4,0.7-1.1,1.2-1.8,1.7c-0.1,0.1-0.3,0.1-0.4,0.2c0.4,0.2,0.8,0.4,1.1,0.6
		c1.2,0.7,2,1.8,2.4,3.2c0.6,2.7,0.1,5.2-1.9,7.2c-1.1,1.1-2.4,1.7-3.8,1.9c-1,0.1-2.1,0.2-3.1,0.2c-3.5,0-7,0-10.5,0
		C15.3,45,15.2,45,15.1,45z M20.7,34.3c0,2.2,0,4.3,0,6.5c2,0,3.9,0,5.8,0c0.5,0,1-0.1,1.4-0.3c1-0.3,1.6-1,1.8-2
		c0.2-0.7,0.2-1.4,0-2.1c-0.4-1.3-1.4-1.9-2.6-2C25.1,34.3,22.9,34.3,20.7,34.3C20.8,34.3,20.7,34.3,20.7,34.3z M20.7,30.2
		c0.1,0,0.2,0,0.3,0c1.6,0,3.2,0,4.9,0c0.4,0,0.9,0,1.3-0.1c0.6-0.1,1.1-0.3,1.5-0.6c0.7-0.5,0.8-1.3,0.8-2.1c0-1.3-0.6-2.1-1.9-2.4
		c-0.6-0.1-1.1-0.2-1.7-0.2c-1.7,0-3.3,0-5,0c-0.1,0-0.1,0-0.2,0C20.7,26.6,20.7,28.4,20.7,30.2z"/>
	<path class="st1" d="M54.3,36.8c-4.2,0-8.4,0-12.7,0c0,0.8,0.2,1.6,0.6,2.3c0.7,1.2,1.7,1.8,3.1,2c0.8,0.1,1.6,0.1,2.4-0.3
		c0.7-0.3,1.2-0.7,1.6-1.3c0.2-0.3,0.4-0.4,0.7-0.4c1.3,0,2.6,0,3.8,0c0.1,0,0.3,0,0.4,0c-0.1,0.9-0.5,1.7-1.1,2.4
		C52,43,50.7,44,49,44.5c-3.3,0.9-6.5,0.5-9.2-1.7c-1.4-1.1-2.2-2.7-2.5-4.4c-0.4-2.2-0.4-4.4,0.3-6.6c0.8-2.4,2.4-4.1,4.9-5
		c2.4-0.8,4.8-0.7,7.2,0.2c1.4,0.6,2.5,1.5,3.3,2.8c0.9,1.4,1.3,2.9,1.4,4.5C54.4,35.1,54.3,35.9,54.3,36.8z M49.6,33.8
		c-0.1-2.1-1.4-3.6-3.9-3.7c-2.5-0.1-3.7,1.6-3.9,3.7C44.4,33.8,47,33.8,49.6,33.8z"/>
	<path class="st1" d="M50.6,24c-3.3,0-6.5,0-9.8,0c0-0.8,0-1.6,0-2.4c3.3,0,6.5,0,9.8,0C50.6,22.4,50.6,23.2,50.6,24z"/>
</g>
</svg>
