<?xml version="1.0" encoding="utf-8"?>
<!-- Generator: Adobe Illustrator 19.2.0, SVG Export Plug-In . SVG Version: 6.00 Build 0)  -->
<svg version="1.1" id="Layer_1" xmlns="http://www.w3.org/2000/svg" xmlns:xlink="http://www.w3.org/1999/xlink" x="0px" y="0px"
	 viewBox="0 0 69.4 65.6" style="enable-background:new 0 0 69.4 65.6;" xml:space="preserve">
<style type="text/css">
	.st0{fill:#FC4F00;}
	.st1{fill:none;enable-background:new    ;}
</style>
<g>
	<path class="st0" d="M52.2,23.6h-37c-1.6,0-3-1.3-3-3v-0.2c0-1.6,1.3-3,3-3h37c1.6,0,3,1.3,3,3v0.2C55.2,22.3,53.8,23.6,52.2,23.6z
		"/>
	<path class="st0" d="M52.2,35.9h-37c-1.6,0-3-1.3-3-3v-0.2c0-1.6,1.3-3,3-3h37c1.6,0,3,1.3,3,3v0.2C55.2,34.6,53.8,35.9,52.2,35.9z
		"/>
	<path class="st0" d="M52.2,48.2h-37c-1.6,0-3-1.3-3-3V45c0-1.6,1.3-3,3-3h37c1.6,0,3,1.3,3,3v0.2C55.2,46.8,53.8,48.2,52.2,48.2z"
		/>
</g>
<path class="st1" d="z"/>
</svg>
