<?xml version="1.0" encoding="utf-8"?>
<!-- Generator: Adobe Illustrator 19.2.0, SVG Export Plug-In . SVG Version: 6.00 Build 0)  -->
<svg version="1.1" id="Layer_1" xmlns="http://www.w3.org/2000/svg" xmlns:xlink="http://www.w3.org/1999/xlink" x="0px" y="0px"
	 viewBox="0 0 69.4 65.6" style="enable-background:new 0 0 69.4 65.6;" xml:space="preserve">
<style type="text/css">
	.st0{fill:#7F7F7F;}
	.st1{fill:#FFFFFF;}
	.st2{fill:#808080;}
	.st3{fill:#363636;}
	.st4{fill:#5B5B5B;}
	.st5{fill:#999999;}
	.st6{fill:#C50A3C;}
	.st7{fill:#FC583C;}
	.st8{fill:#FEC22D;}
	.st9{fill:#DBF6AA;}
	.st10{fill:#8E1140;}
	.st11{fill:#C4C4C4;}
	.st12{fill:#E7E7E7;}
	.st13{stroke:#000000;stroke-width:0.6156;stroke-miterlimit:10;}
	.st14{stroke:#000000;stroke-width:0.6632;stroke-miterlimit:10;}
	.st15{stroke:#000000;stroke-width:0.791;stroke-miterlimit:10;}
	.st16{stroke:#000000;stroke-width:0.8434;stroke-miterlimit:10;}
	.st17{stroke:#000000;stroke-width:0.7461;stroke-miterlimit:10;}
</style>
<g>
	<path class="st0" d="M34.7,4.1c15.2,0,27.5,12.3,27.5,27.5C62.2,46.9,49.8,59,34.7,59C19.5,59,7.2,46.7,7.2,31.5
		C7.2,16.5,19.4,4.1,34.7,4.1z"/>
	<g>
		<path class="st1" d="M43.7,24.8c-0.1,1-0.2,2-0.3,2.9c-0.1,1.1-0.2,2.1-0.3,3.2c0,0.3-0.1,0.4-0.4,0.4c-1.5,0-3.1,0-4.6,0.1
			c-0.5,0-0.5,0-0.5,0.6c0,0,0,6.8,0,10.2v3.6v4.8c0,0.4-0.1,0.5-0.5,0.4c-2.3,0-4.5,0-6.8,0c-0.4,0-0.6-0.1-0.6-0.5
			c0-1.6,0-3.3,0-4.9v-4.2v-9.5c0-0.4-0.1-0.5-0.4-0.5c-1.1,0-2.2,0-3.2,0c-0.3,0-0.4-0.1-0.4-0.4c0-1.9,0-3.8,0-5.8
			c0-0.3,0.1-0.4,0.4-0.4c1.1,0,2.2,0,3.3,0c0.3,0,0.4-0.1,0.4-0.4c0-1.3,0-2.7,0-4c0-1.3,0-2.7,0.5-4c0.8-2.1,2.3-3.4,4.4-3.9
			c1-0.2,2-0.4,3-0.4c1.8-0.1,3.6,0,5.5,0c0.4,0,0.5,0.1,0.5,0.5c0,1.7,0,3.3,0,5c0,0.3,0,0.5,0,0.8c0,0.3-0.1,0.4-0.4,0.4
			c-1,0-2.1,0-3.1,0c-0.5,0-0.9,0-1.4,0.1c-0.7,0.1-1.1,0.5-1.1,1.2c-0.1,1.5-0.1,2.9-0.1,4.4c0,0.3,0.2,0.3,0.4,0.3
			c1.7,0,3.5,0,5.2,0C43.3,24.8,43.5,24.8,43.7,24.8z"/>
	</g>
</g>
</svg>
