<?xml version="1.0" encoding="utf-8"?>
<!-- Generator: Adobe Illustrator 19.2.0, SVG Export Plug-In . SVG Version: 6.00 Build 0)  -->
<svg version="1.1" id="Layer_1" xmlns="http://www.w3.org/2000/svg" xmlns:xlink="http://www.w3.org/1999/xlink" x="0px" y="0px"
	 viewBox="0 0 69.4 65.6" style="enable-background:new 0 0 69.4 65.6;" xml:space="preserve">
<style type="text/css">
	.st0{fill:#7F7F7F;}
	.st1{fill:#FFFFFF;}
	.st2{fill:#808080;}
	.st3{fill:#363636;}
	.st4{fill:#5B5B5B;}
	.st5{fill:#999999;}
	.st6{fill:#C50A3C;}
	.st7{fill:#FC583C;}
	.st8{fill:#FEC22D;}
	.st9{fill:#DBF6AA;}
	.st10{fill:#8E1140;}
	.st11{fill:#C4C4C4;}
	.st12{fill:#E7E7E7;}
	.st13{stroke:#000000;stroke-width:0.6156;stroke-miterlimit:10;}
	.st14{stroke:#000000;stroke-width:0.6632;stroke-miterlimit:10;}
	.st15{stroke:#000000;stroke-width:0.791;stroke-miterlimit:10;}
	.st16{stroke:#000000;stroke-width:0.8434;stroke-miterlimit:10;}
	.st17{stroke:#000000;stroke-width:0.7461;stroke-miterlimit:10;}
</style>
<g>
	<path class="st0" d="M33.6,60.2c-15.1,0-27.5-12.3-27.5-27.4c0-15.1,12.3-27.5,27.4-27.4C48.7,5.4,61,17.6,61,32.8
		C61.1,47.9,48.7,60.2,33.6,60.2z M33.6,17.2c-3.1,0-6.1,0-9.2,0c-0.5,0-1,0-1.5,0.1c-3,0.6-4.9,3-4.9,6.2c0,6.2,0,12.4,0,18.7
		c0,0.4,0,0.9,0.1,1.3c0.6,3,3,4.9,6.2,4.9c6.2,0,12.4,0,18.6,0c0.5,0,1,0,1.5-0.1c2.9-0.6,4.8-3,4.9-6.1c0-6.2,0-12.5,0-18.7
		c0-0.9-0.1-1.9-0.6-2.7c-1.2-2.4-3.1-3.5-5.7-3.5C39.8,17.2,36.7,17.2,33.6,17.2z"/>
	<path class="st1" d="M33.6,17.2c3.1,0,6.2,0,9.3,0c2.6,0,4.6,1.2,5.7,3.5c0.4,0.8,0.6,1.8,0.6,2.7c0,6.2,0,12.5,0,18.7
		c0,3.1-1.9,5.5-4.9,6.1c-0.5,0.1-1,0.1-1.5,0.1c-6.2,0-12.4,0-18.6,0c-3.2,0-5.6-1.9-6.2-4.9C18,43,18,42.6,18,42.1
		c0-6.2,0-12.4,0-18.7c0-3.1,2-5.6,4.9-6.2c0.5-0.1,1-0.1,1.5-0.1C27.4,17.2,30.5,17.2,33.6,17.2z M21,29.6c0,0.1,0,0.3,0,0.4
		c0,4.1,0,8.2,0,12.2c0,1.9,1.2,3.2,3.2,3.2c6.2,0,12.4,0,18.7,0c2,0,3.2-1.2,3.2-3.3c0-4,0-8,0-12c0-0.2,0-0.3,0-0.5
		c-1.6,0-3.1,0-4.6,0c1.3,4.2,0.4,7.7-3.2,10.2c-3,2.1-6.3,2.1-9.4,0.1c-3.7-2.5-4.6-6.1-3.4-10.3C24.1,29.6,22.6,29.6,21,29.6z
		 M33.6,38.3c3,0,5.5-2.5,5.5-5.4c0-3.1-2.5-5.5-5.5-5.5c-3,0-5.5,2.5-5.5,5.5C28.1,35.8,30.6,38.3,33.6,38.3z M45.6,26.1
		c0-1.8,0-3.5,0-5.2c-1.8,0-3.5,0-5.2,0c0,1.8,0,3.5,0,5.2C42.1,26.1,43.8,26.1,45.6,26.1z"/>
	<path class="st0" d="M21,29.6c1.5,0,3.1,0,4.6,0c-1.3,4.2-0.4,7.8,3.4,10.3c3.1,2,6.4,2,9.4-0.1c3.6-2.5,4.5-6.1,3.2-10.2
		c1.5,0,3,0,4.6,0c0,0.2,0,0.3,0,0.5c0,4,0,8,0,12c0,2-1.2,3.3-3.2,3.3c-6.2,0-12.4,0-18.7,0c-2,0-3.2-1.2-3.2-3.2
		c0-4.1,0-8.2,0-12.2C21,29.9,21,29.8,21,29.6z"/>
	<path class="st0" d="M33.6,38.3c-3,0-5.5-2.5-5.5-5.4c0-3.1,2.4-5.5,5.5-5.5c3,0,5.5,2.5,5.5,5.5C39.1,35.8,36.6,38.3,33.6,38.3z"
		/>
	<path class="st0" d="M45.6,26.1c-1.8,0-3.5,0-5.2,0c0-1.7,0-3.5,0-5.2c1.7,0,3.5,0,5.2,0C45.6,22.6,45.6,24.3,45.6,26.1z"/>
</g>
</svg>
