<?xml version="1.0" encoding="utf-8"?>
<!-- Generator: Adobe Illustrator 19.2.0, SVG Export Plug-In . SVG Version: 6.00 Build 0)  -->
<svg version="1.1" id="Layer_1" xmlns="http://www.w3.org/2000/svg" xmlns:xlink="http://www.w3.org/1999/xlink" x="0px" y="0px"
	 viewBox="0 0 69.4 65.6" style="enable-background:new 0 0 69.4 65.6;" xml:space="preserve">
<style type="text/css">
	.st0{fill:#7F7F7F;}
</style>
<g>
	<g>
	</g>
	<g>
	</g>
	<g>
	</g>
	<g>
	</g>
	<g>
	</g>
	<g>
	</g>
	<g>
	</g>
	<g>
	</g>
	<g>
	</g>
	<g>
	</g>
	<g>
	</g>
	<g>
	</g>
	<g>
	</g>
	<g>
	</g>
	<g>
	</g>
</g>
<path class="st0" d="M34.7,5.3C19.4,5.3,7.2,17.8,7.2,32.8c0,15.2,12.3,27.5,27.5,27.5c15.1,0,27.5-12.1,27.5-27.4
	C62.2,17.6,49.9,5.3,34.7,5.3z M22.8,17c2.2,0,3.9,1.7,3.9,3.9c0,2.2-1.7,3.9-3.9,3.9c-2.2,0-3.9-1.7-3.9-3.9
	C18.9,18.7,20.6,17,22.8,17z M19.5,28.5H26V48h-6.5V28.5z M40.1,33.2c-1.7,0-3.2,1.5-3.2,3.2V48h-6.5V28.5h6.5v2.6
	c1.1-1.7,3.5-3,5.4-3c4.1,0,7.6,3.5,7.6,7.6V48h-6.5V36.5C43.4,34.7,41.8,33.2,40.1,33.2z"/>
</svg>
