<?xml version="1.0" encoding="utf-8"?>
<!-- Generator: Adobe Illustrator 19.2.0, SVG Export Plug-In . SVG Version: 6.00 Build 0)  -->
<svg version="1.1" id="Layer_1" xmlns="http://www.w3.org/2000/svg" xmlns:xlink="http://www.w3.org/1999/xlink" x="0px" y="0px"
	 viewBox="0 0 69.4 65.6" style="enable-background:new 0 0 69.4 65.6;" xml:space="preserve">
<style type="text/css">
	.st0{fill:#7F7F7F;}
	.st1{fill:#FFFFFF;}
	.st2{fill:#808080;}
	.st3{fill:#363636;}
	.st4{fill:#5B5B5B;}
	.st5{fill:#999999;}
	.st6{fill:#C50A3C;}
	.st7{fill:#FC583C;}
	.st8{fill:#FEC22D;}
	.st9{fill:#DBF6AA;}
	.st10{fill:#8E1140;}
	.st11{fill:#C4C4C4;}
	.st12{fill:#E7E7E7;}
	.st13{stroke:#000000;stroke-width:0.6156;stroke-miterlimit:10;}
	.st14{stroke:#000000;stroke-width:0.6632;stroke-miterlimit:10;}
	.st15{stroke:#000000;stroke-width:0.791;stroke-miterlimit:10;}
	.st16{stroke:#000000;stroke-width:0.8434;stroke-miterlimit:10;}
	.st17{stroke:#000000;stroke-width:0.7461;stroke-miterlimit:10;}
</style>
<path class="st0" d="M33.6,5.3c15.2,0,27.5,12.3,27.5,27.5c0,15.3-12.4,27.5-27.5,27.5c-15.2,0-27.5-12.3-27.5-27.5
	C6.1,17.7,18.3,5.3,33.6,5.3z"/>
<path class="st1" d="M33.6,45c-5.1,0-10.2,0-15.2,0c-0.2,0-0.4,0-0.6-0.1c-0.6-0.2-1-0.7-1-1.3c0-0.1,0-0.2,0-0.2
	c0-7.1,0-14.1,0-21.2c0-0.2,0-0.3,0-0.5c0.1-0.6,0.7-1.1,1.3-1.1c0.1,0,0.1,0,0.2,0c10.2,0,20.3,0,30.5,0c0.2,0,0.4,0,0.6,0.1
	c0.6,0.2,1,0.7,1,1.3c0,0.1,0,0.2,0,0.3c0,7.1,0,14.1,0,21.2c0,0.2,0,0.3,0,0.5c-0.1,0.6-0.6,1.1-1.2,1.1c-0.1,0-0.2,0-0.3,0
	C43.7,45,38.6,45,33.6,45z"/>
<path class="st2" d="M21.9,23.9c7.8,0,15.6,0,23.4,0c0,0.1-0.1,0.1-0.1,0.2c-0.7,0.6-1.4,1.2-2.1,1.8c-1.1,0.9-2.2,1.9-3.2,2.8
	c-1.3,1.2-2.7,2.3-4,3.5c-0.7,0.6-1.4,1.2-2.1,1.8c-0.2,0.1-0.2,0.1-0.3,0c-0.8-0.7-1.6-1.4-2.4-2.1c-1.5-1.3-2.9-2.5-4.4-3.8
	c-1.2-1-2.4-2.1-3.6-3.1c-0.3-0.3-0.6-0.6-1-0.8C22,24.1,21.9,24,21.9,23.9C21.9,24,21.9,23.9,21.9,23.9z"/>
<path class="st2" d="M45.1,42.2c-7.6,0-15.2,0-22.9,0c0-0.1,0-0.1,0.1-0.1c1.2-1.1,2.4-2.2,3.6-3.2c0.8-0.7,1.5-1.4,2.3-2.1
	c0.6-0.6,1.3-1.1,1.9-1.7c0.1-0.1,0.1-0.1,0.3,0c0.7,0.6,1.5,1.3,2.2,1.9c0.3,0.2,0.5,0.4,0.9,0.4c0.4,0,0.8-0.1,1.1-0.4
	c0.8-0.7,1.5-1.3,2.3-2c0.2-0.1,0.1-0.1,0.3,0c1.6,1.5,3.3,2.9,4.9,4.4c0.9,0.8,1.9,1.7,2.8,2.5C44.9,42,45,42,45.1,42.2
	C45.1,42.1,45.1,42.2,45.1,42.2z"/>
<path class="st2" d="M19.5,25.6c0.2,0.1,0.2,0.2,0.3,0.3c1.6,1.4,3.2,2.8,4.8,4.2c1.1,0.9,2.2,1.9,3.2,2.8c0.3,0.2,0.3,0.2,0,0.4
	c-0.9,0.8-1.9,1.7-2.8,2.5c-1.6,1.4-3.1,2.8-4.7,4.2c-0.3,0.3-0.6,0.5-0.8,0.8c0,0,0,0,0,0c0,0,0,0,0,0
	C19.5,35.7,19.5,30.7,19.5,25.6z"/>
<path class="st2" d="M47.6,25.6c0,5.1,0,10.1,0,15.1c-0.1,0-0.1-0.1-0.2-0.1c-2.1-1.9-4.3-3.8-6.4-5.7c-0.6-0.5-1.2-1.1-1.8-1.6
	c-0.1-0.1-0.1-0.1,0-0.2c1-0.9,2-1.8,3.1-2.7c1-0.8,1.9-1.7,2.9-2.5c0.8-0.7,1.6-1.4,2.4-2.1C47.5,25.6,47.6,25.6,47.6,25.6z"/>
</svg>
