<?xml version="1.0" encoding="utf-8"?>
<!-- Generator: Adobe Illustrator 19.2.0, SVG Export Plug-In . SVG Version: 6.00 Build 0)  -->
<svg version="1.1" id="Layer_1" xmlns="http://www.w3.org/2000/svg" xmlns:xlink="http://www.w3.org/1999/xlink" x="0px" y="0px"
	 viewBox="0 0 302.2 291" style="enable-background:new 0 0 302.2 291;" xml:space="preserve">
<style type="text/css">
	.st0{fill:#CCCCCC;}
</style>
<g>
	<circle class="st0" cx="80.7" cy="12.3" r="3"/>
	<circle class="st0" cx="147.7" cy="12.3" r="3"/>
	<circle class="st0" cx="214.7" cy="12.3" r="3"/>
	<circle class="st0" cx="281.8" cy="12.3" r="3"/>
	<circle class="st0" cx="13.6" cy="12.3" r="3"/>
</g>
<g>
	<circle class="st0" cx="80.7" cy="79.3" r="3"/>
	<circle class="st0" cx="147.7" cy="79.3" r="3"/>
	<circle class="st0" cx="214.7" cy="79.3" r="3"/>
	<circle class="st0" cx="281.8" cy="79.3" r="3"/>
	<circle class="st0" cx="13.6" cy="79.3" r="3"/>
</g>
<g>
	<circle class="st0" cx="80.7" cy="146.2" r="3"/>
	<circle class="st0" cx="147.7" cy="146.2" r="3"/>
	<circle class="st0" cx="214.7" cy="146.2" r="3"/>
	<circle class="st0" cx="281.8" cy="146.2" r="3"/>
	<circle class="st0" cx="13.6" cy="146.2" r="3"/>
</g>
<g>
	<circle class="st0" cx="80.7" cy="213.2" r="3"/>
	<circle class="st0" cx="147.7" cy="213.2" r="3"/>
	<circle class="st0" cx="214.7" cy="213.2" r="3"/>
	<circle class="st0" cx="281.8" cy="213.2" r="3"/>
	<circle class="st0" cx="13.6" cy="213.2" r="3"/>
</g>
<g>
	<circle class="st0" cx="80.7" cy="280.2" r="3"/>
	<circle class="st0" cx="147.7" cy="280.2" r="3"/>
	<circle class="st0" cx="214.7" cy="280.2" r="3"/>
	<circle class="st0" cx="281.8" cy="280.2" r="3"/>
	<circle class="st0" cx="13.6" cy="280.2" r="3"/>
</g>
</svg>
